<svg width="4096" height="4096" viewBox="0 0 4096 4096" fill="none" xmlns="http://www.w3.org/2000/svg">
<rect width="4096" height="4096" rx="2048" fill="white"/>
<mask id="path-2-outside-1_1_2" maskUnits="userSpaceOnUse" x="1056" y="918" width="891" height="1131" fill="black">
<rect fill="white" x="1056" y="918" width="891" height="1131"/>
<path d="M1144.81 2017H1088.09V950.027H1517.33C1588.87 950.027 1654.79 965.357 1715.09 996.017C1776.41 1026.68 1824.95 1070.11 1860.72 1126.32C1896.49 1182.53 1914.38 1247.43 1914.38 1321.01C1914.38 1391.53 1895.98 1456.43 1859.19 1515.71C1823.42 1574.98 1774.36 1620.46 1712.02 1652.14C1657.86 1679.74 1592.96 1693.54 1517.33 1693.54H1144.81V2017ZM1144.81 1636.81H1517.33C1582.74 1636.81 1636.39 1626.59 1678.3 1606.15C1732.46 1580.6 1775.9 1542.28 1808.6 1491.18C1841.31 1440.08 1857.66 1383.36 1857.66 1321.01C1857.66 1259.69 1841.31 1203.48 1808.6 1152.38C1775.9 1101.28 1731.95 1062.96 1676.76 1037.41C1634.86 1016.97 1581.72 1006.75 1517.33 1006.75H1144.81V1636.81Z"/>
</mask>
<path d="M1144.81 2017H1088.09V950.027H1517.33C1588.87 950.027 1654.79 965.357 1715.09 996.017C1776.41 1026.68 1824.95 1070.11 1860.72 1126.32C1896.49 1182.53 1914.38 1247.43 1914.38 1321.01C1914.38 1391.53 1895.98 1456.43 1859.19 1515.71C1823.42 1574.98 1774.36 1620.46 1712.02 1652.14C1657.86 1679.74 1592.96 1693.54 1517.33 1693.54H1144.81V2017ZM1144.81 1636.81H1517.33C1582.74 1636.81 1636.39 1626.59 1678.3 1606.15C1732.46 1580.6 1775.9 1542.28 1808.6 1491.18C1841.31 1440.08 1857.66 1383.36 1857.66 1321.01C1857.66 1259.69 1841.31 1203.48 1808.6 1152.38C1775.9 1101.28 1731.95 1062.96 1676.76 1037.41C1634.86 1016.97 1581.72 1006.75 1517.33 1006.75H1144.81V1636.81Z" fill="#CB4B4B"/>
<path d="M1144.81 2017V2049H1176.81V2017H1144.81ZM1088.09 2017H1056.09V2049H1088.09V2017ZM1088.09 950.027V918.027H1056.09V950.027H1088.09ZM1715.09 996.017L1700.58 1024.54L1700.68 1024.59L1700.78 1024.64L1715.09 996.017ZM1860.72 1126.32L1833.73 1143.5L1833.73 1143.5L1860.72 1126.32ZM1859.19 1515.71L1832 1498.83L1831.9 1499L1831.79 1499.17L1859.19 1515.71ZM1712.02 1652.14L1697.52 1623.62L1697.51 1623.62L1697.5 1623.63L1712.02 1652.14ZM1144.81 1693.54V1661.54H1112.81V1693.54H1144.81ZM1144.81 1636.81H1112.81V1668.81H1144.81V1636.81ZM1678.3 1606.15L1664.64 1577.21L1664.45 1577.3L1664.27 1577.39L1678.3 1606.15ZM1808.6 1491.18L1781.65 1473.93L1781.65 1473.93L1808.6 1491.18ZM1676.76 1037.41L1662.73 1066.17L1663.02 1066.31L1663.32 1066.45L1676.76 1037.41ZM1144.81 1006.75V974.748H1112.81V1006.75H1144.81ZM1144.81 1985H1088.09V2049H1144.81V1985ZM1120.09 2017V950.027H1056.09V2017H1120.09ZM1088.09 982.027H1517.33V918.027H1088.09V982.027ZM1517.33 982.027C1584.13 982.027 1645.04 996.298 1700.58 1024.54L1729.59 967.493C1664.54 934.416 1593.61 918.027 1517.33 918.027V982.027ZM1700.78 1024.64C1757.07 1052.78 1801.16 1092.33 1833.73 1143.5L1887.72 1109.14C1848.74 1047.89 1795.75 1000.57 1729.4 967.395L1700.78 1024.64ZM1833.73 1143.5C1865.89 1194.05 1882.38 1252.86 1882.38 1321.01H1946.38C1946.38 1242 1927.09 1171.02 1887.72 1109.14L1833.73 1143.5ZM1882.38 1321.01C1882.38 1385.64 1865.61 1444.68 1832 1498.83L1886.38 1532.58C1926.35 1468.18 1946.38 1397.43 1946.38 1321.01H1882.38ZM1831.79 1499.17C1799.15 1553.27 1754.59 1594.62 1697.52 1623.62L1726.52 1680.67C1794.14 1646.31 1847.69 1596.7 1886.59 1532.24L1831.79 1499.17ZM1697.5 1623.63C1648.79 1648.44 1589.12 1661.54 1517.33 1661.54V1725.54C1596.8 1725.54 1666.92 1711.04 1726.55 1680.66L1697.5 1623.63ZM1517.33 1661.54H1144.81V1725.54H1517.33V1661.54ZM1112.81 1693.54V2017H1176.81V1693.54H1112.81ZM1144.81 1668.81H1517.33V1604.81H1144.81V1668.81ZM1517.33 1668.81C1585.76 1668.81 1644.66 1658.17 1692.33 1634.91L1664.27 1577.39C1628.13 1595.02 1579.71 1604.81 1517.33 1604.81V1668.81ZM1691.95 1635.1C1751.63 1606.94 1799.65 1564.53 1835.55 1508.43L1781.65 1473.93C1752.15 1520.03 1713.29 1554.27 1664.64 1577.21L1691.95 1635.1ZM1835.55 1508.43C1871.65 1452.03 1889.66 1389.29 1889.66 1321.01H1825.66C1825.66 1377.42 1810.96 1428.13 1781.65 1473.93L1835.55 1508.43ZM1889.66 1321.01C1889.66 1253.65 1871.59 1191.44 1835.55 1135.13L1781.65 1169.63C1811.02 1215.53 1825.66 1265.74 1825.66 1321.01H1889.66ZM1835.55 1135.13C1799.55 1078.88 1750.92 1036.48 1690.21 1008.37L1663.32 1066.45C1712.99 1089.44 1752.24 1123.68 1781.65 1169.63L1835.55 1135.13ZM1690.79 1008.65C1643.18 985.424 1584.83 974.748 1517.33 974.748V1038.75C1578.6 1038.75 1626.54 1048.51 1662.73 1066.17L1690.79 1008.65ZM1517.33 974.748H1144.81V1038.75H1517.33V974.748ZM1112.81 1006.75V1636.81H1176.81V1006.75H1112.81Z" fill="#CB4B4B" mask="url(#path-2-outside-1_1_2)"/>
<mask id="path-4-outside-2_1_2" maskUnits="userSpaceOnUse" x="2176.84" y="888" width="954" height="1191" fill="black">
<rect fill="white" x="2176.84" y="888" width="954" height="1191"/>
<path d="M2209.48 1365.47C2209.48 1285.76 2229.41 1211.66 2269.27 1143.19C2309.13 1074.71 2362.78 1020.55 2430.24 980.687C2498.71 940.829 2573.32 920.9 2654.06 920.9C2734.79 920.9 2808.89 940.829 2876.34 980.687C2944.82 1020.55 2998.98 1074.71 3038.84 1143.19C3078.7 1211.66 3098.63 1285.76 3098.63 1365.47V1601.55C3098.63 1681.27 3078.7 1755.37 3038.84 1823.84C2998.98 1892.32 2944.82 1946.48 2876.34 1986.34C2808.89 2026.2 2734.79 2046.13 2654.06 2046.13C2573.32 2046.13 2498.71 2026.2 2430.24 1986.34C2362.78 1946.48 2309.13 1892.32 2269.27 1823.84C2229.41 1755.37 2209.48 1681.27 2209.48 1601.55V1365.47ZM2488.49 1601.55C2488.49 1650.61 2503.82 1692.51 2534.48 1727.26C2565.14 1762.01 2605 1779.38 2654.06 1779.38C2702.09 1779.38 2741.44 1762.01 2772.1 1727.26C2802.76 1692.51 2818.09 1650.61 2818.09 1601.55V1363.94C2818.09 1313.86 2802.76 1271.96 2772.1 1238.23C2741.44 1204.51 2702.09 1187.64 2654.06 1187.64C2605 1187.64 2565.14 1204.51 2534.48 1238.23C2503.82 1271.96 2488.49 1313.86 2488.49 1363.94V1601.55Z"/>
</mask>
<path d="M2209.48 1365.47C2209.48 1285.76 2229.41 1211.66 2269.27 1143.19C2309.13 1074.71 2362.78 1020.55 2430.24 980.687C2498.71 940.829 2573.32 920.9 2654.06 920.9C2734.79 920.9 2808.89 940.829 2876.34 980.687C2944.82 1020.55 2998.98 1074.71 3038.84 1143.19C3078.7 1211.66 3098.63 1285.76 3098.63 1365.47V1601.55C3098.63 1681.27 3078.7 1755.37 3038.84 1823.84C2998.98 1892.32 2944.82 1946.48 2876.34 1986.34C2808.89 2026.2 2734.79 2046.13 2654.06 2046.13C2573.32 2046.13 2498.71 2026.2 2430.24 1986.34C2362.78 1946.48 2309.13 1892.32 2269.27 1823.84C2229.41 1755.37 2209.48 1681.27 2209.48 1601.55V1365.47ZM2488.49 1601.55C2488.49 1650.61 2503.82 1692.51 2534.48 1727.26C2565.14 1762.01 2605 1779.38 2654.06 1779.38C2702.09 1779.38 2741.44 1762.01 2772.1 1727.26C2802.76 1692.51 2818.09 1650.61 2818.09 1601.55V1363.94C2818.09 1313.86 2802.76 1271.96 2772.1 1238.23C2741.44 1204.51 2702.09 1187.64 2654.06 1187.64C2605 1187.64 2565.14 1204.51 2534.48 1238.23C2503.82 1271.96 2488.49 1313.86 2488.49 1363.94V1601.55Z" fill="#CB4B4B"/>
<path d="M2269.27 1143.19L2241.61 1127.09L2241.61 1127.09L2269.27 1143.19ZM2430.24 980.687L2414.14 953.031L2414.05 953.084L2413.96 953.137L2430.24 980.687ZM2876.34 980.687L2860.06 1008.24L2860.15 1008.29L2860.24 1008.34L2876.34 980.687ZM3038.84 1143.19L3066.5 1127.09L3066.5 1127.09L3038.84 1143.19ZM3038.84 1823.84L3066.5 1839.94L3066.5 1839.94L3038.84 1823.84ZM2876.34 1986.34L2860.24 1958.68L2860.15 1958.74L2860.06 1958.79L2876.34 1986.34ZM2430.24 1986.34L2413.96 2013.89L2414.05 2013.94L2414.14 2014L2430.24 1986.34ZM2269.27 1823.84L2241.61 1839.94L2241.61 1839.94L2269.27 1823.84ZM2534.48 1727.26L2558.48 1706.09L2558.48 1706.09L2534.48 1727.26ZM2772.1 1727.26L2748.1 1706.09L2748.1 1706.09L2772.1 1727.26ZM2241.48 1365.47C2241.48 1291.37 2259.93 1222.84 2296.93 1159.28L2241.61 1127.09C2198.89 1200.48 2177.48 1280.14 2177.48 1365.47H2241.48ZM2296.93 1159.28C2334.07 1095.48 2383.83 1045.28 2446.52 1008.24L2413.96 953.137C2341.74 995.81 2284.19 1053.94 2241.61 1127.09L2296.93 1159.28ZM2446.33 1008.34C2509.82 971.386 2578.86 952.9 2654.06 952.9V888.9C2567.77 888.9 2487.6 910.271 2414.14 953.031L2446.33 1008.34ZM2654.06 952.9C2729.25 952.9 2797.7 971.384 2860.06 1008.24L2892.62 953.137C2820.08 910.274 2740.34 888.9 2654.06 888.9V952.9ZM2860.24 1008.34C2923.93 1045.41 2974.11 1095.6 3011.18 1159.28L3066.5 1127.09C3023.85 1053.83 2965.7 995.676 2892.44 953.031L2860.24 1008.34ZM3011.18 1159.28C3048.18 1222.84 3066.63 1291.37 3066.63 1365.47H3130.63C3130.63 1280.14 3109.22 1200.48 3066.5 1127.09L3011.18 1159.28ZM3066.63 1365.47V1601.55H3130.63V1365.47H3066.63ZM3066.63 1601.55C3066.63 1675.65 3048.18 1744.19 3011.18 1807.74L3066.5 1839.94C3109.22 1766.55 3130.63 1686.89 3130.63 1601.55H3066.63ZM3011.18 1807.74C2974.11 1871.43 2923.93 1921.61 2860.24 1958.68L2892.44 2014C2965.7 1971.35 3023.85 1913.2 3066.5 1839.94L3011.18 1807.74ZM2860.06 1958.79C2797.7 1995.64 2729.25 2014.13 2654.06 2014.13V2078.13C2740.34 2078.13 2820.08 2056.75 2892.62 2013.89L2860.06 1958.79ZM2654.06 2014.13C2578.86 2014.13 2509.82 1995.64 2446.33 1958.68L2414.14 2014C2487.6 2056.76 2567.77 2078.13 2654.06 2078.13V2014.13ZM2446.52 1958.79C2383.83 1921.75 2334.07 1871.55 2296.93 1807.74L2241.61 1839.94C2284.19 1913.08 2341.74 1971.22 2413.96 2013.89L2446.52 1958.79ZM2296.93 1807.74C2259.93 1744.19 2241.48 1675.65 2241.48 1601.55H2177.48C2177.48 1686.89 2198.89 1766.55 2241.61 1839.94L2296.93 1807.74ZM2241.48 1601.55V1365.47H2177.48V1601.55H2241.48ZM2456.49 1601.55C2456.49 1657.91 2474.35 1707.48 2510.49 1748.43L2558.48 1706.09C2533.29 1677.55 2520.49 1643.31 2520.49 1601.55H2456.49ZM2510.49 1748.43C2547.61 1790.51 2596.43 1811.38 2654.06 1811.38V1747.38C2613.57 1747.38 2582.67 1733.51 2558.48 1706.09L2510.49 1748.43ZM2654.06 1811.38C2710.89 1811.38 2759.11 1790.35 2796.09 1748.43L2748.1 1706.09C2723.76 1733.67 2693.29 1747.38 2654.06 1747.38V1811.38ZM2796.09 1748.43C2832.23 1707.48 2850.09 1657.91 2850.09 1601.55H2786.09C2786.09 1643.31 2773.28 1677.55 2748.1 1706.09L2796.09 1748.43ZM2850.09 1601.55V1363.94H2786.09V1601.55H2850.09ZM2850.09 1363.94C2850.09 1306.75 2832.34 1256.92 2795.77 1216.71L2748.42 1259.76C2773.18 1286.99 2786.09 1320.97 2786.09 1363.94H2850.09ZM2795.77 1216.71C2758.69 1175.91 2710.56 1155.64 2654.06 1155.64V1219.64C2693.62 1219.64 2724.18 1233.1 2748.42 1259.76L2795.77 1216.71ZM2654.06 1155.64C2596.75 1155.64 2548.03 1175.76 2510.8 1216.71L2558.16 1259.76C2582.25 1233.25 2613.24 1219.64 2654.06 1219.64V1155.64ZM2510.8 1216.71C2474.24 1256.92 2456.49 1306.75 2456.49 1363.94H2520.49C2520.49 1320.97 2533.4 1286.99 2558.16 1259.76L2510.8 1216.71ZM2456.49 1363.94V1601.55H2520.49V1363.94H2456.49Z" fill="#CB4B4B" mask="url(#path-4-outside-2_1_2)"/>
<mask id="path-6-outside-3_1_2" maskUnits="userSpaceOnUse" x="1055.61" y="1983.97" width="862" height="1051" fill="black">
<rect fill="white" x="1055.61" y="1983.97" width="862" height="1051"/>
<path d="M1140.29 3002.97H1087.82V2016.02H1144.54L1489.12 2624.35L1832.29 2016.02H1884.75V3002.97H1832.29V2120.95L1513.23 2683.91H1463.6L1140.29 2113.86V3002.97Z"/>
</mask>
<path d="M1140.29 3002.97H1087.82V2016.02H1144.54L1489.12 2624.35L1832.29 2016.02H1884.75V3002.97H1832.29V2120.95L1513.23 2683.91H1463.6L1140.29 2113.86V3002.97Z" fill="#CB4B4B"/>
<path d="M1140.29 3002.97V3034.97H1172.29V3002.97H1140.29ZM1087.82 3002.97H1055.82V3034.97H1087.82V3002.97ZM1087.82 2016.02V1984.02H1055.82V2016.02H1087.82ZM1144.54 2016.02L1172.38 2000.25L1163.19 1984.02H1144.54V2016.02ZM1489.12 2624.35L1461.28 2640.13L1489.18 2689.38L1516.99 2640.08L1489.12 2624.35ZM1832.29 2016.02V1984.02H1813.6L1804.42 2000.3L1832.29 2016.02ZM1884.75 2016.02H1916.75V1984.02H1884.75V2016.02ZM1884.75 3002.97V3034.97H1916.75V3002.97H1884.75ZM1832.29 3002.97H1800.29V3034.97H1832.29V3002.97ZM1832.29 2120.95H1864.29V1999.59L1804.45 2105.17L1832.29 2120.95ZM1513.23 2683.91V2715.91H1531.88L1541.07 2699.69L1513.23 2683.91ZM1463.6 2683.91L1435.76 2699.7L1444.96 2715.91H1463.6V2683.91ZM1140.29 2113.86L1168.12 2098.08L1108.29 1992.58V2113.86H1140.29ZM1140.29 2970.97H1087.82V3034.97H1140.29V2970.97ZM1119.82 3002.97V2016.02H1055.82V3002.97H1119.82ZM1087.82 2048.02H1144.54V1984.02H1087.82V2048.02ZM1116.7 2031.79L1461.28 2640.13L1516.97 2608.58L1172.38 2000.25L1116.7 2031.79ZM1516.99 2640.08L1860.16 2031.74L1804.42 2000.3L1461.25 2608.63L1516.99 2640.08ZM1832.29 2048.02H1884.75V1984.02H1832.29V2048.02ZM1852.75 2016.02V3002.97H1916.75V2016.02H1852.75ZM1884.75 2970.97H1832.29V3034.97H1884.75V2970.97ZM1864.29 3002.97V2120.95H1800.29V3002.97H1864.29ZM1804.45 2105.17L1485.39 2668.13L1541.07 2699.69L1860.13 2136.73L1804.45 2105.17ZM1513.23 2651.91H1463.6V2715.91H1513.23V2651.91ZM1491.43 2668.12L1168.12 2098.08L1112.45 2129.65L1435.76 2699.7L1491.43 2668.12ZM1108.29 2113.86V3002.97H1172.29V2113.86H1108.29Z" fill="#CB4B4B" mask="url(#path-6-outside-3_1_2)"/>
<mask id="path-8-outside-4_1_2" maskUnits="userSpaceOnUse" x="2181.84" y="1869.99" width="945" height="1177" fill="black">
<rect fill="white" x="2181.84" y="1869.99" width="945" height="1177"/>
<path d="M2654.06 1902.02C2733.77 1902.02 2807.36 1921.95 2874.81 1961.81C2942.26 2000.65 2995.4 2053.79 3034.24 2121.24C3074.1 2188.7 3094.03 2262.28 3094.03 2342V2575.01C3094.03 2654.73 3074.1 2728.32 3034.24 2795.77C2995.4 2863.22 2942.26 2916.88 2874.81 2956.73C2807.36 2995.57 2733.77 3014.99 2654.06 3014.99C2574.34 3014.99 2500.75 2995.57 2433.3 2956.73C2365.85 2916.88 2312.19 2863.22 2272.34 2795.77C2233.5 2728.32 2214.08 2654.73 2214.08 2575.01V2342C2214.08 2262.28 2233.5 2188.7 2272.34 2121.24C2312.19 2053.79 2365.85 2000.65 2433.3 1961.81C2500.75 1921.95 2574.34 1902.02 2654.06 1902.02ZM2270.8 2575.01C2270.8 2644.51 2287.67 2708.9 2321.39 2768.17C2356.14 2826.43 2402.64 2872.93 2460.9 2907.68C2520.17 2941.4 2584.56 2958.27 2654.06 2958.27C2723.55 2958.27 2787.43 2941.4 2845.68 2907.68C2904.96 2872.93 2951.46 2826.43 2985.18 2768.17C3019.93 2708.9 3037.31 2644.51 3037.31 2575.01V2342C3037.31 2272.5 3019.93 2208.63 2985.18 2150.37C2951.46 2091.1 2904.96 2044.59 2845.68 2010.87C2787.43 1976.12 2723.55 1958.75 2654.06 1958.75C2584.56 1958.75 2520.17 1976.12 2460.9 2010.87C2402.64 2044.59 2356.14 2091.1 2321.39 2150.37C2287.67 2208.63 2270.8 2272.5 2270.8 2342V2575.01Z"/>
</mask>
<path d="M2654.06 1902.02C2733.77 1902.02 2807.36 1921.95 2874.81 1961.81C2942.26 2000.65 2995.4 2053.79 3034.24 2121.24C3074.1 2188.7 3094.03 2262.28 3094.03 2342V2575.01C3094.03 2654.73 3074.1 2728.32 3034.24 2795.77C2995.4 2863.22 2942.26 2916.88 2874.81 2956.73C2807.36 2995.57 2733.77 3014.99 2654.06 3014.99C2574.34 3014.99 2500.75 2995.57 2433.3 2956.73C2365.85 2916.88 2312.19 2863.22 2272.34 2795.77C2233.5 2728.32 2214.08 2654.73 2214.08 2575.01V2342C2214.08 2262.28 2233.5 2188.7 2272.34 2121.24C2312.19 2053.79 2365.85 2000.65 2433.3 1961.81C2500.75 1921.95 2574.34 1902.02 2654.06 1902.02ZM2270.8 2575.01C2270.8 2644.51 2287.67 2708.9 2321.39 2768.17C2356.14 2826.43 2402.64 2872.93 2460.9 2907.68C2520.17 2941.4 2584.56 2958.27 2654.06 2958.27C2723.55 2958.27 2787.43 2941.4 2845.68 2907.68C2904.96 2872.93 2951.46 2826.43 2985.18 2768.17C3019.93 2708.9 3037.31 2644.51 3037.31 2575.01V2342C3037.31 2272.5 3019.93 2208.63 2985.18 2150.37C2951.46 2091.1 2904.96 2044.59 2845.68 2010.87C2787.43 1976.12 2723.55 1958.75 2654.06 1958.75C2584.56 1958.75 2520.17 1976.12 2460.9 2010.87C2402.64 2044.59 2356.14 2091.1 2321.39 2150.37C2287.67 2208.63 2270.8 2272.5 2270.8 2342V2575.01Z" fill="#CB4B4B"/>
<path d="M2874.81 1961.81L2858.53 1989.36L2858.68 1989.45L2858.84 1989.54L2874.81 1961.81ZM3034.24 2121.24L3006.51 2137.21L3006.6 2137.37L3006.69 2137.52L3034.24 2121.24ZM3034.24 2795.77L3006.69 2779.49L3006.6 2779.64L3006.51 2779.8L3034.24 2795.77ZM2874.81 2956.73L2890.77 2984.47L2890.93 2984.38L2891.09 2984.28L2874.81 2956.73ZM2433.3 2956.73L2417.02 2984.28L2417.18 2984.38L2417.34 2984.47L2433.3 2956.73ZM2272.34 2795.77L2244.6 2811.73L2244.69 2811.89L2244.79 2812.05L2272.34 2795.77ZM2272.34 2121.24L2244.79 2104.97L2244.69 2105.12L2244.6 2105.28L2272.34 2121.24ZM2433.3 1961.81L2449.27 1989.54L2449.43 1989.45L2449.58 1989.36L2433.3 1961.81ZM2321.39 2768.17L2293.58 2784L2293.74 2784.28L2293.91 2784.57L2321.39 2768.17ZM2460.9 2907.68L2444.5 2935.16L2444.79 2935.33L2445.07 2935.49L2460.9 2907.68ZM2845.68 2907.68L2861.71 2935.37L2861.79 2935.33L2861.86 2935.28L2845.68 2907.68ZM2985.18 2768.17L2957.58 2751.99L2957.53 2752.07L2957.49 2752.14L2985.18 2768.17ZM2985.18 2150.37L2957.37 2166.2L2957.53 2166.48L2957.7 2166.76L2985.18 2150.37ZM2845.68 2010.87L2829.29 2038.35L2829.57 2038.52L2829.86 2038.68L2845.68 2010.87ZM2460.9 2010.87L2476.93 2038.56L2477 2038.52L2477.08 2038.47L2460.9 2010.87ZM2321.39 2150.37L2293.79 2134.19L2293.74 2134.26L2293.7 2134.34L2321.39 2150.37ZM2654.06 1934.02C2728.15 1934.02 2796.1 1952.47 2858.53 1989.36L2891.09 1934.26C2818.61 1891.44 2739.39 1870.02 2654.06 1870.02V1934.02ZM2858.84 1989.54C2921.4 2025.56 2970.49 2074.65 3006.51 2137.21L3061.97 2105.28C3020.32 2032.93 2963.12 1975.73 2890.77 1934.08L2858.84 1989.54ZM3006.69 2137.52C3043.58 2199.96 3062.03 2267.9 3062.03 2342H3126.03C3126.03 2256.66 3104.62 2177.44 3061.79 2104.97L3006.69 2137.52ZM3062.03 2342V2575.01H3126.03V2342H3062.03ZM3062.03 2575.01C3062.03 2649.11 3043.58 2717.06 3006.69 2779.49L3061.79 2812.05C3104.62 2739.57 3126.03 2660.35 3126.03 2575.01H3062.03ZM3006.51 2779.8C2970.45 2842.44 2921.26 2892.11 2858.53 2929.18L2891.09 2984.28C2963.26 2941.64 3020.36 2884 3061.97 2811.73L3006.51 2779.8ZM2858.84 2929C2796.37 2964.97 2728.31 2982.99 2654.06 2982.99V3046.99C2739.23 3046.99 2818.34 3026.17 2890.77 2984.47L2858.84 2929ZM2654.06 2982.99C2579.8 2982.99 2511.74 2964.97 2449.27 2929L2417.34 2984.47C2489.77 3026.17 2568.88 3046.99 2654.06 3046.99V2982.99ZM2449.58 2929.18C2386.78 2892.07 2337 2842.29 2299.89 2779.49L2244.79 2812.05C2287.39 2884.15 2344.92 2941.68 2417.02 2984.28L2449.58 2929.18ZM2300.07 2779.8C2264.1 2717.33 2246.08 2649.27 2246.08 2575.01H2182.08C2182.08 2660.19 2202.9 2739.3 2244.6 2811.73L2300.07 2779.8ZM2246.08 2575.01V2342H2182.08V2575.01H2246.08ZM2246.08 2342C2246.08 2267.74 2264.1 2199.69 2300.07 2137.21L2244.6 2105.28C2202.9 2177.71 2182.08 2256.82 2182.08 2342H2246.08ZM2299.89 2137.52C2336.96 2074.79 2386.63 2025.61 2449.27 1989.54L2417.34 1934.08C2345.07 1975.69 2287.43 2032.79 2244.79 2104.97L2299.89 2137.52ZM2449.58 1989.36C2512.01 1952.47 2579.96 1934.02 2654.06 1934.02V1870.02C2568.72 1870.02 2489.5 1891.44 2417.02 1934.26L2449.58 1989.36ZM2238.8 2575.01C2238.8 2649.95 2257.05 2719.8 2293.58 2784L2349.21 2752.35C2318.28 2697.99 2302.8 2639.07 2302.8 2575.01H2238.8ZM2293.91 2784.57C2331.38 2847.38 2381.69 2897.69 2444.5 2935.16L2477.29 2880.2C2423.59 2848.17 2380.9 2805.48 2348.87 2751.78L2293.91 2784.57ZM2445.07 2935.49C2509.27 2972.01 2579.12 2990.27 2654.06 2990.27V2926.27C2590 2926.27 2531.08 2910.79 2476.72 2879.86L2445.07 2935.49ZM2654.06 2990.27C2728.99 2990.27 2798.42 2972.01 2861.71 2935.37L2829.65 2879.98C2776.43 2910.79 2718.11 2926.27 2654.06 2926.27V2990.27ZM2861.86 2935.28C2925.81 2897.8 2976.32 2847.35 3012.88 2784.21L2957.49 2752.14C2926.6 2805.5 2884.11 2848.06 2829.5 2880.07L2861.86 2935.28ZM3012.79 2784.36C3050.45 2720.11 3069.31 2650.13 3069.31 2575.01H3005.31C3005.31 2638.89 2989.41 2697.68 2957.58 2751.99L3012.79 2784.36ZM3069.31 2575.01V2342H3005.31V2575.01H3069.31ZM3069.31 2342C3069.31 2266.88 3050.45 2197.32 3012.67 2133.98L2957.7 2166.76C2989.42 2219.94 3005.31 2278.12 3005.31 2342H3069.31ZM3013 2134.55C2976.43 2070.27 2925.78 2019.63 2861.51 1983.05L2829.86 2038.68C2884.13 2069.56 2926.49 2111.92 2957.37 2166.2L3013 2134.55ZM2862.07 1983.39C2798.74 1945.61 2729.17 1926.75 2654.06 1926.75V1990.75C2717.93 1990.75 2776.12 2006.63 2829.29 2038.35L2862.07 1983.39ZM2654.06 1926.75C2578.94 1926.75 2508.96 1945.6 2444.71 1983.26L2477.08 2038.47C2531.39 2006.64 2590.18 1990.75 2654.06 1990.75V1926.75ZM2444.86 1983.17C2381.72 2019.73 2331.27 2070.24 2293.79 2134.19L2349 2166.55C2381.01 2111.95 2423.57 2069.46 2476.93 2038.56L2444.86 1983.17ZM2293.7 2134.34C2257.06 2197.63 2238.8 2267.06 2238.8 2342H2302.8C2302.8 2277.94 2318.27 2219.62 2349.09 2166.4L2293.7 2134.34ZM2238.8 2342V2575.01H2302.8V2342H2238.8Z" fill="#CB4B4B" mask="url(#path-8-outside-4_1_2)"/>
<path d="M2874.81 1961.81L2858.53 1989.36L2858.68 1989.45L2858.84 1989.54L2874.81 1961.81ZM3034.24 2121.24L3006.51 2137.21L3006.6 2137.37L3006.69 2137.52L3034.24 2121.24ZM3034.24 2795.77L3006.69 2779.49L3006.6 2779.64L3006.51 2779.8L3034.24 2795.77ZM2874.81 2956.73L2890.77 2984.47L2890.93 2984.38L2891.09 2984.28L2874.81 2956.73ZM2433.3 2956.73L2417.02 2984.28L2417.18 2984.38L2417.34 2984.47L2433.3 2956.73ZM2272.34 2795.77L2244.6 2811.73L2244.69 2811.89L2244.79 2812.05L2272.34 2795.77ZM2272.34 2121.24L2244.79 2104.97L2244.69 2105.12L2244.6 2105.28L2272.34 2121.24ZM2433.3 1961.81L2449.27 1989.54L2449.43 1989.45L2449.58 1989.36L2433.3 1961.81ZM2321.39 2768.17L2293.58 2784L2293.74 2784.28L2293.91 2784.57L2321.39 2768.17ZM2460.9 2907.68L2444.5 2935.16L2444.79 2935.33L2445.07 2935.49L2460.9 2907.68ZM2845.68 2907.68L2861.71 2935.37L2861.79 2935.33L2861.86 2935.28L2845.68 2907.68ZM2985.18 2768.17L2957.58 2751.99L2957.53 2752.07L2957.49 2752.14L2985.18 2768.17ZM2985.18 2150.37L2957.37 2166.2L2957.53 2166.48L2957.7 2166.76L2985.18 2150.37ZM2845.68 2010.87L2829.29 2038.35L2829.57 2038.52L2829.86 2038.68L2845.68 2010.87ZM2460.9 2010.87L2476.93 2038.56L2477 2038.52L2477.08 2038.47L2460.9 2010.87ZM2321.39 2150.37L2293.79 2134.19L2293.74 2134.26L2293.7 2134.34L2321.39 2150.37ZM2654.06 1934.02C2728.15 1934.02 2796.1 1952.47 2858.53 1989.36L2891.09 1934.26C2818.61 1891.44 2739.39 1870.02 2654.06 1870.02V1934.02ZM2858.84 1989.54C2921.4 2025.56 2970.49 2074.65 3006.51 2137.21L3061.97 2105.28C3020.32 2032.93 2963.12 1975.73 2890.77 1934.08L2858.84 1989.54ZM3006.69 2137.52C3043.58 2199.96 3062.03 2267.9 3062.03 2342H3126.03C3126.03 2256.66 3104.62 2177.44 3061.79 2104.97L3006.69 2137.52ZM3062.03 2342V2575.01H3126.03V2342H3062.03ZM3062.03 2575.01C3062.03 2649.11 3043.58 2717.06 3006.69 2779.49L3061.79 2812.05C3104.62 2739.57 3126.03 2660.35 3126.03 2575.01H3062.03ZM3006.51 2779.8C2970.45 2842.44 2921.26 2892.11 2858.53 2929.18L2891.09 2984.28C2963.26 2941.64 3020.36 2884 3061.97 2811.73L3006.51 2779.8ZM2858.84 2929C2796.37 2964.97 2728.31 2982.99 2654.06 2982.99V3046.99C2739.23 3046.99 2818.34 3026.17 2890.77 2984.47L2858.84 2929ZM2654.06 2982.99C2579.8 2982.99 2511.74 2964.97 2449.27 2929L2417.34 2984.47C2489.77 3026.17 2568.88 3046.99 2654.06 3046.99V2982.99ZM2449.58 2929.18C2386.78 2892.07 2337 2842.29 2299.89 2779.49L2244.79 2812.05C2287.39 2884.15 2344.92 2941.68 2417.02 2984.28L2449.58 2929.18ZM2300.07 2779.8C2264.1 2717.33 2246.08 2649.27 2246.08 2575.01H2182.08C2182.08 2660.19 2202.9 2739.3 2244.6 2811.73L2300.07 2779.8ZM2246.08 2575.01V2342H2182.08V2575.01H2246.08ZM2246.08 2342C2246.08 2267.74 2264.1 2199.69 2300.07 2137.21L2244.6 2105.28C2202.9 2177.71 2182.08 2256.82 2182.08 2342H2246.08ZM2299.89 2137.52C2336.96 2074.79 2386.63 2025.61 2449.27 1989.54L2417.34 1934.08C2345.07 1975.69 2287.43 2032.79 2244.79 2104.97L2299.89 2137.52ZM2449.58 1989.36C2512.01 1952.47 2579.96 1934.02 2654.06 1934.02V1870.02C2568.72 1870.02 2489.5 1891.44 2417.02 1934.26L2449.58 1989.36ZM2238.8 2575.01C2238.8 2649.95 2257.05 2719.8 2293.58 2784L2349.21 2752.35C2318.28 2697.99 2302.8 2639.07 2302.8 2575.01H2238.8ZM2293.91 2784.57C2331.38 2847.38 2381.69 2897.69 2444.5 2935.16L2477.29 2880.2C2423.59 2848.17 2380.9 2805.48 2348.87 2751.78L2293.91 2784.57ZM2445.07 2935.49C2509.27 2972.01 2579.12 2990.27 2654.06 2990.27V2926.27C2590 2926.27 2531.08 2910.79 2476.72 2879.86L2445.07 2935.49ZM2654.06 2990.27C2728.99 2990.27 2798.42 2972.01 2861.71 2935.37L2829.65 2879.98C2776.43 2910.79 2718.11 2926.27 2654.06 2926.27V2990.27ZM2861.86 2935.28C2925.81 2897.8 2976.32 2847.35 3012.88 2784.21L2957.49 2752.14C2926.6 2805.5 2884.11 2848.06 2829.5 2880.07L2861.86 2935.28ZM3012.79 2784.36C3050.45 2720.11 3069.31 2650.13 3069.31 2575.01H3005.31C3005.31 2638.89 2989.41 2697.68 2957.58 2751.99L3012.79 2784.36ZM3069.31 2575.01V2342H3005.31V2575.01H3069.31ZM3069.31 2342C3069.31 2266.88 3050.45 2197.32 3012.67 2133.98L2957.7 2166.76C2989.42 2219.94 3005.31 2278.12 3005.31 2342H3069.31ZM3013 2134.55C2976.43 2070.27 2925.78 2019.63 2861.51 1983.05L2829.86 2038.68C2884.13 2069.56 2926.49 2111.92 2957.37 2166.2L3013 2134.55ZM2862.07 1983.39C2798.74 1945.61 2729.17 1926.75 2654.06 1926.75V1990.75C2717.93 1990.75 2776.12 2006.63 2829.29 2038.35L2862.07 1983.39ZM2654.06 1926.75C2578.94 1926.75 2508.96 1945.6 2444.71 1983.26L2477.08 2038.47C2531.39 2006.64 2590.18 1990.75 2654.06 1990.75V1926.75ZM2444.86 1983.17C2381.72 2019.73 2331.27 2070.24 2293.79 2134.19L2349 2166.55C2381.01 2111.95 2423.57 2069.46 2476.93 2038.56L2444.86 1983.17ZM2293.7 2134.34C2257.06 2197.63 2238.8 2267.06 2238.8 2342H2302.8C2302.8 2277.94 2318.27 2219.62 2349.09 2166.4L2293.7 2134.34ZM2238.8 2342V2575.01H2302.8V2342H2238.8Z" fill="white" mask="url(#path-8-outside-4_1_2)"/>
</svg>
